<?xml version="1.0" ?><svg data-name="Design Convert" id="Design_Convert" viewBox="0 0 64 64" xmlns="http://www.w3.org/2000/svg"><defs><style>.cls-1{fill:#7aa98f;}</style></defs><title/><path class="cls-1" d="M52,51H12a5,5,0,0,1-5-5V18a5,5,0,0,1,5-5H52a5,5,0,0,1,5,5V46A5,5,0,0,1,52,51ZM12,15a3,3,0,0,0-3,3V46a3,3,0,0,0,3,3H52a3,3,0,0,0,3-3V18a3,3,0,0,0-3-3Z"/><path class="cls-1" d="M32,36.72a4.34,4.34,0,0,1-3-1.21L9.31,16.72a1,1,0,0,1,1.38-1.44L30.38,34.07a2.34,2.34,0,0,0,3.24,0L53.31,15.28a1,1,0,0,1,1.38,1.44L35,35.51A4.34,4.34,0,0,1,32,36.72Z"/></svg>
